# xmcd
#
# Track frame offsets:
#	150
#	11682
#	24310
#	35640
#	49840
#	64087
#	77962
#	92100
#	105550
#	118510
#	130702
#	141725
#	153867
#	165872
#	178982
#	193125
#	205455
#	217872
#	230517
#	244657
#	256525
#	269162
#	281557
#	294515
#	307970
#
# Disc length: 4290 seconds
#
# Revision: 0
# Processed by: cddbd v1.4PL0 Copyright (c) Steve Scherf et al.
# Submitted via: dBpowerAMP V4.0
#
DISCID=6910c019
DTITLE=Louis Jordan - How'Bout That
DYEAR=1900
DGENRE=Blues
TTITLE0=At the Swing Cat's Ball
TTITLE1=Small Town Boy
TTITLE2=I Know You
TTITLE3=Pompton Turnpike
TTITLE4=Honeysuckle Rose
TTITLE5=I'm Gonna Move To The Outskirts of Town
TTITLE6=That'll Just 'Bout Knock Me Out
TTITLE7=G.I. Jive
TTITLE8=The Green Grass Grows All Around
TTITLE9=Caldonia
TTITLE10=The Two Little Squirrels
TTITLE11=You Ain't Nowhere
TTITLE12=Saxa-Woogie
TTITLE13=How 'Bout That
TTITLE14=Ration Blues
TTITLE15=Is You Is Or Is You Ain't My Baby?
TTITLE16=Barnacle Bill the Sailor
TTITLE17=It's a Lowdown Dirty Shame
TTITLE18=Boogie Woogie Came to Town
TTITLE19=You Run Your Mouth and I'll Run My Business
TTITLE20=Oh Boy I'm In The Groove
TTITLE21=Sam Jones Done Snagged His Britches
TTITLE22=Pan-Pan
TTITLE23=Brotherly Love
TTITLE24=Mama, Mama Blues
EXTD=
EXTT0=
EXTT1=
EXTT2=
EXTT3=
EXTT4=
EXTT5=
EXTT6=
EXTT7=
EXTT8=
EXTT9=
EXTT10=
EXTT11=
EXTT12=
EXTT13=
EXTT14=
EXTT15=
EXTT16=
EXTT17=
EXTT18=
EXTT19=
EXTT20=
EXTT21=
EXTT22=
EXTT23=
EXTT24=
PLAYORDER=
